<?xml version="1.0" encoding="UTF-8"?>
<!DOCTYPE svg PUBLIC "-//W3C//DTD SVG 1.1//EN" "http://www.w3.org/Graphics/SVG/1.1/DTD/svg11.dtd">
<svg xmlns="http://www.w3.org/2000/svg" version="1.1" width="500px" height="500px" style="shape-rendering:geometricPrecision; text-rendering:geometricPrecision; image-rendering:optimizeQuality; fill-rule:evenodd; clip-rule:evenodd" xmlns:xlink="http://www.w3.org/1999/xlink">
<g><path style="opacity:1" fill="#fefefe" d="M -0.5,-0.5 C 166.167,-0.5 332.833,-0.5 499.5,-0.5C 499.5,166.167 499.5,332.833 499.5,499.5C 332.833,499.5 166.167,499.5 -0.5,499.5C -0.5,332.833 -0.5,166.167 -0.5,-0.5 Z"/></g>
<g><path style="opacity:1" fill="#020202" d="M 230.5,28.5 C 281.867,27.0073 320.533,48.1739 346.5,92C 363.588,92.0902 374.755,100.257 380,116.5C 380.667,131.833 380.667,147.167 380,162.5C 376.654,176.513 367.987,185.179 354,188.5C 338.631,229.366 309.798,255.366 267.5,266.5C 260.865,281.931 249.198,288.097 232.5,285C 217.411,279.006 210.911,267.839 213,251.5C 222.351,230.827 237.184,225.66 257.5,236C 259.874,238.039 261.874,240.372 263.5,243C 277.322,241.259 289.655,235.926 300.5,227C 330.801,201.444 342.968,168.944 337,129.5C 325.4,84.8996 296.9,58.7329 251.5,51C 201.46,48.7276 166.627,70.5609 147,116.5C 142.687,130.851 141.353,145.518 143,160.5C 144.227,170.072 146.393,179.405 149.5,188.5C 141.16,188.666 132.827,188.5 124.5,188C 112.227,184.061 104.394,175.894 101,163.5C 100.333,147.5 100.333,131.5 101,115.5C 106.707,100.049 117.874,92.0488 134.5,91.5C 155.967,54.4341 187.967,33.4341 230.5,28.5 Z"/></g>
<g><path style="opacity:1" fill="#03bf63" d="M 229.5,82.5 C 269.563,80.0854 295.063,98.0854 306,136.5C 309.517,178.955 290.684,205.122 249.5,215C 224.833,215.667 200.167,215.667 175.5,215C 182.391,209.728 189.057,204.228 195.5,198.5C 174.198,176.623 168.698,151.289 179,122.5C 189.271,100.714 206.104,87.3805 229.5,82.5 Z"/></g>
<g><path style="opacity:1" fill="#0c0c0c" d="M 221.5,320.5 C 228.175,320.334 234.842,320.5 241.5,321C 245.77,322.27 248.27,325.104 249,329.5C 249.667,344.167 249.667,358.833 249,373.5C 248.27,377.896 245.77,380.73 241.5,382C 234.5,382.667 227.5,382.667 220.5,382C 216.835,380.332 214.668,377.499 214,373.5C 213.333,358.5 213.333,343.5 214,328.5C 215.353,324.65 217.853,321.983 221.5,320.5 Z"/></g>
<g><path style="opacity:1" fill="#070707" d="M 266.5,320.5 C 273.257,320.123 279.924,320.623 286.5,322C 291.048,326.132 292.715,331.299 291.5,337.5C 287.5,337.5 283.5,337.5 279.5,337.5C 280.578,330.935 277.911,328.768 271.5,331C 270.368,335.413 270.201,339.913 271,344.5C 275.749,345.305 280.582,345.805 285.5,346C 289,346.833 291.167,349 292,352.5C 292.87,360.897 292.537,369.23 291,377.5C 289.363,379.81 287.196,381.31 284.5,382C 278.167,382.667 271.833,382.667 265.5,382C 263,380.833 261.167,379 260,376.5C 258.734,372.605 258.234,368.605 258.5,364.5C 262.5,364.5 266.5,364.5 270.5,364.5C 269.09,372.064 272.09,374.564 279.5,372C 280.469,367.263 280.803,362.43 280.5,357.5C 274.238,358.128 268.238,357.295 262.5,355C 261.299,354.097 260.465,352.931 260,351.5C 258.432,343.579 258.099,335.579 259,327.5C 260.742,324.254 263.242,321.921 266.5,320.5 Z"/></g>
<g><path style="opacity:1" fill="#040404" d="M 172.5,321.5 C 181.506,321.334 190.506,321.5 199.5,322C 202.937,323.105 205.437,325.272 207,328.5C 207.667,335.5 207.667,342.5 207,349.5C 206.496,353.02 204.663,355.52 201.5,357C 196.177,357.499 190.844,357.666 185.5,357.5C 185.5,365.5 185.5,373.5 185.5,381.5C 181.167,381.5 176.833,381.5 172.5,381.5C 172.5,361.5 172.5,341.5 172.5,321.5 Z"/></g>
<g><path style="opacity:1" fill="#0a0a0a" d="M 307.5,381.5 C 307.5,365.167 307.5,348.833 307.5,332.5C 304.167,332.5 300.833,332.5 297.5,332.5C 297.5,328.833 297.5,325.167 297.5,321.5C 308.167,321.5 318.833,321.5 329.5,321.5C 329.5,325.167 329.5,328.833 329.5,332.5C 326.5,332.5 323.5,332.5 320.5,332.5C 320.5,348.833 320.5,365.167 320.5,381.5C 316.167,381.5 311.833,381.5 307.5,381.5 Z"/></g>
<g><path style="opacity:1" fill="#eeeeee" d="M 227.5,329.5 C 230.448,329.223 233.281,329.556 236,330.5C 236.823,344.742 236.656,358.908 235.5,373C 232.571,373.777 229.737,373.61 227,372.5C 226.185,358.092 226.352,343.759 227.5,329.5 Z"/></g>
<g><path style="opacity:1" fill="#f7f7f7" d="M 185.5,330.5 C 193.75,328.585 196.75,331.752 194.5,340C 196.75,348.248 193.75,351.415 185.5,349.5C 185.5,343.167 185.5,336.833 185.5,330.5 Z"/></g>
<g><path style="opacity:1" fill="#acacac" d="M 297.5,332.5 C 300.833,332.5 304.167,332.5 307.5,332.5C 307.5,348.833 307.5,365.167 307.5,381.5C 306.504,365.675 306.17,349.675 306.5,333.5C 303.287,333.81 300.287,333.477 297.5,332.5 Z"/></g>
<g><path style="opacity:1" fill="#e50b05" d="M 206.5,402.5 C 208.833,402.5 211.167,402.5 213.5,402.5C 213.5,407.167 213.5,411.833 213.5,416.5C 215.5,416.5 217.5,416.5 219.5,416.5C 219.5,411.833 219.5,407.167 219.5,402.5C 221.833,402.5 224.167,402.5 226.5,402.5C 226.5,413.833 226.5,425.167 226.5,436.5C 224.167,436.5 221.833,436.5 219.5,436.5C 219.5,432.167 219.5,427.833 219.5,423.5C 217.5,423.5 215.5,423.5 213.5,423.5C 213.5,427.833 213.5,432.167 213.5,436.5C 211.167,436.5 208.833,436.5 206.5,436.5C 206.5,425.167 206.5,413.833 206.5,402.5 Z"/></g>
<g><path style="opacity:1" fill="#e61209" d="M 240.5,402.5 C 242.833,402.5 245.167,402.5 247.5,402.5C 247.5,412.167 247.5,421.833 247.5,431.5C 249.167,431.5 250.833,431.5 252.5,431.5C 252.5,421.833 252.5,412.167 252.5,402.5C 254.833,402.5 257.167,402.5 259.5,402.5C 259.666,412.839 259.5,423.172 259,433.5C 257.028,436.889 254.028,438.222 250,437.5C 245.972,438.222 242.972,436.889 241,433.5C 240.5,423.172 240.334,412.839 240.5,402.5 Z"/></g>
<g><path style="opacity:1" fill="#f48c8a" d="M 288.5,403.5 C 283.5,403.5 278.5,403.5 273.5,403.5C 273.5,414.5 273.5,425.5 273.5,436.5C 272.505,425.346 272.172,414.012 272.5,402.5C 278.026,402.179 283.36,402.512 288.5,403.5 Z"/></g>
<g><path style="opacity:1" fill="#e50905" d="M 288.5,403.5 C 290.411,403.574 291.578,404.574 292,406.5C 292.956,410.572 292.456,414.405 290.5,418C 291,418.5 291.5,419 292,419.5C 292.667,424.167 292.667,428.833 292,433.5C 291.5,434.667 290.667,435.5 289.5,436C 284.177,436.499 278.844,436.666 273.5,436.5C 273.5,425.5 273.5,414.5 273.5,403.5C 278.5,403.5 283.5,403.5 288.5,403.5 Z"/></g>
<g><path style="opacity:1" fill="#feecec" d="M 280.5,407.5 C 282.144,407.286 283.644,407.62 285,408.5C 285.497,411.146 285.664,413.813 285.5,416.5C 283.833,416.5 282.167,416.5 280.5,416.5C 280.5,413.5 280.5,410.5 280.5,407.5 Z"/></g>
<g><path style="opacity:1" fill="#fff4f4" d="M 280.5,421.5 C 282.167,421.5 283.833,421.5 285.5,421.5C 285.5,424.833 285.5,428.167 285.5,431.5C 283.833,431.5 282.167,431.5 280.5,431.5C 280.5,428.167 280.5,424.833 280.5,421.5 Z"/></g>
</svg>
