<?xml version="1.0" encoding="UTF-8"?>
<svg version="1.1" viewBox="0 0 2000 2000" width="1280" height="1280" xmlns="http://www.w3.org/2000/svg">
<path transform="translate(938,116)" d="m0 0h49l34 3 40 6 30 7 35 11 30 13 28 13 22 12 17 10 11 8 13 9 21 16 15 13 13 12 17 17 7 8 9 10 9 11 14 18 12 17 11 17 12 20 2 2 23 2 20 4 15 5 17 9 12 9 13 11 9 11 9 13 8 16 7 21 2 13 1 83v31l-1 48-3 16-6 18-8 15-8 12-9 10-9 9-12 9-14 8-15 7-21 7-11 29-12 26-14 27-13 21-11 16-20 26-9 11-11 12-14 15-16 15-11 10-22 18-17 12-14 9-15 9-25 14-17 9-24 10-27 10-44 13-3 3-5 14-10 16-13 15-8 7-14 9-15 7-13 4-19 3h-20l-20-4-15-5-14-8-13-10-9-8-11-15-8-14-6-16-4-21v-23l4-19 6-15 4-8 9-13 14-15 9-8 15-9 18-7 13-3 12-1h17l19 3 19 7 13 7 14 11 7 7 9 11 5 7 3 1 16-5 30-10 34-15 20-11 22-14 18-13 13-11 11-9 9-9 8-7 11-11 9-11 12-14 10-14 7-10 12-20 11-20 11-24 10-27 7-24 5-21 5-30 2-17 1-18v-21l-3-39-5-32-5-23-9-30-11-28-15-31-13-22-8-12-12-17-11-14-11-12-13-13-7-8-12-11-25-20-21-14-21-12-27-14-24-10-36-12-21-5-30-5-19-2-18-1h-35l-26 2-38 6-21 5-36 12-26 11-29 15-17 10-12 8-16 12-17 14-10 9-28 28-18 22-14 20-14 23-12 22-12 27-9 25-8 27-5 24-4 26-1 10v52l2 26 4 28 6 28 9 30 8 21 3 6v3h-85l-17-3-18-6-16-8-11-7-11-9-16-16-10-15-8-16-6-18-2-12-1-14v-146l3-21 7-19 8-15 12-17 12-12 14-11 14-8 10-5 16-5 16-3 24-2 7-11 9-16 13-19 12-16 11-14 9-10 9-11 8-9h2l2-4h2l2-4 12-12 11-9 12-11 19-14 18-13 19-12 24-13 21-10 12-6 34-14 30-9 29-7 34-5 24-3z"/>
<path transform="translate(933,332)" d="m0 0h60l27 4 28 8 27 11 16 8 18 11 18 13 11 9 12 11 12 12 11 14 9 12 11 17 7 12 12 27 8 24 5 22 3 20 2 23v20l-3 29-4 20-6 22-8 21-12 25-13 21-14 19-12 13-17 17-8 7-12 9-15 10-21 12-25 12-21 7-28 6-22 3-18 1h-248l-21-1 5-5 12-8 16-12 17-14 10-8 10-9 11-9 1-3-22-22-11-14-11-15-9-15-11-21-10-26-7-26-5-30-1-17v-30l2-19 4-22 7-25 8-21 11-23 12-19 13-18 11-13 7-8h2l2-4 8-7 10-9 18-13 15-10 16-9 17-8 25-9 23-6z" fill="#00BC67"/>
<path transform="translate(896,1285)" d="m0 0h61l13 2 14 7 6 7 5 10 3 12v170l-3 13-6 11-7 7-8 4-11 3-50 1-21-1-13-4-9-6-6-8-5-12-1-4-1-13v-155l2-14 5-12 9-10 12-6zm17 35-3 2-1 5v164l2 4 2 1h29l3-1 1-3v-168l-3-4z"/>
<path transform="translate(1076,1285)" d="m0 0h52l13 2 12 6 5 5 4 5 4 8 3 15v25h-49l-1-20-2-4-2-1h-23l-5 2-1 5v38l1 9 6 2 42 1 12 3 9 5 7 7 6 12 2 8 1 16v42l-1 20-4 13-7 11-8 6-11 4-5 1-28 1h-22l-15-1-11-3-10-6-7-9-5-12-2-18v-23l1-2h48l2 33h34v-57l-3-3-46-1-13-4-8-5-8-9-5-12-2-17v-54l2-14 5-12 8-9 10-6 7-2z"/>
<path transform="translate(692,1289)" d="m0 0h102l10 2 12 6 8 9 4 8 3 12v69l-3 14-5 9-6 7-14 7-14 2h-45v93l-8 1h-43l-1-1zm52 35v74l1 1h18l14-1 2-1 1-9v-30l-1-32-6-2z"/>
<path transform="translate(1192,1289)" d="m0 0h129v43l-15 1h-23l-1 194-3 1h-48l-1-1v-193l-37-1-1-1z"/>
<path transform="translate(1095,1613)" d="m0 0h53l11 2 6 4 4 5 2 5 1 6v23l-3 9-7 7 7 6 4 8 1 8v26l-2 11-5 8-4 4-5 2-16 1h-47l-1-1v-133zm29 20v36h18l1-1v-33l-2-2zm0 56v39h19l1-1v-37l-2-1z" fill="#030303"/>
<path transform="translate(828,1613)" d="m0 0h27l2 3v53h22v-54l1-2h28l1 1v133l-9 1h-20l-1-6v-46l-23-1 1 52-2 1h-27l-1-1v-133z" fill="#030303"/>
<path transform="translate(964,1613)" d="m0 0h27l1 1v114h19v-114l1-1h28l1 6-1 113-5 10-5 5-6 2-7 1h-34l-9-3-6-5-4-8-1-5v-115z" fill="#010101"/>
<path transform="translate(828,1613)" d="m0 0h27l2 3-1 50-3-2-1-5 1-9v-7l1-2v-20l-9-3-11 2h-6l1 6h3l-1 10 3 1 2 5v7h2l1 19-2 7 1 11 3 1-2 16-1 5v3l-1 4v14l2 2 3-1 6 2 2-1 2-18 2-2 1-8h1l1 44-2 1h-27l-1-1v-133z" fill="#F7F7F7"/>
<path transform="translate(1095,1613)" d="m0 0h53l11 2 6 4 4 5 2 5 1 6v23l-3 9-5 2-1-7 2-4 2-20v-8h-3l-4-6 1-3-4-1-22-2-5 2-6-1h-9l-20-2 1 18 3-4 1 5 2-5 2 3 1 7-1 4 3 7-1 10-1 6h-2l-1 20v22l1 2v14l4 11 5 5v3l-1 1-17 1v-133z" fill="#FCFCFC"/>
<path transform="translate(963,1627)" d="m0 0h1l1 7 3 3-1 9 3-1 2 9v40l1 5v15l2 10-1 8 5 4v2h3v2l9 1 6 4v4l3 1h-17l-9-3-6-5-4-8-1-5z" fill="#FCFCFC"/>
<path transform="translate(880,1613)" d="m0 0h28l1 1v133l-9 1h-20l-1-6v-35l2-4h2l5 7 1 8 1 9h-2l3 5 6 2 5-6 1-11 2-4 1-15-2-1 1-1h-1v-5l1-1 1-8-2-1v-4h2v-24l1-32v-3h-7l-1-1h-20z" fill="#F3F3F3"/>
<path transform="translate(1095,1613)" d="m0 0h53l11 2 6 4 4 5 2 5 1 6v23l-3 9-5 2-1-7 2-4 2-20v-8h-3l-4-6 1-3-4-1-22-2-5 2-6-1h-9l-20-2v21h-1v-24z" fill="#F8F8F8"/>
<path transform="translate(1012,1613)" d="m0 0h22v2l3 1v1h-25v11h3l1 3-2 5-1 16h2l1 2h2v12l-2 3h-2v-2h-2l1 18 2-6 3 1v8l-1 7 1 16-2 7h-2l-1-2-1 11h-1v-113z" fill="#F9F9F9"/>
<path transform="translate(1166,1681)" d="m0 0h2v2h3l2 5 1 8v26l-2 11-5 8-4 4h-14l-4-4 14-6 4-5 3-4 3-1 1-8v-27l-2-4z" fill="#FCFCFC"/>
<path transform="translate(1039,1709)" d="m0 0h1v23l-5 10-5 5-6 2-7 1h-13l2-2-1-3 5-3 13-2 6-2v-2h2l1-5 3-7 2-1v-3z" fill="#FCFCFC"/>
<path transform="translate(828,1613)" d="m0 0h27l2 3-1 50-3-2-1-5 1-9v-7l1-2v-20l-9-3-11 2h-6v7h-1v-13z" fill="#FDFDFD"/>
<path transform="translate(1011,1667)" d="m0 0h1l1 18 2-6 3 1v8l-1 7 1 16-2 7h-2l-1-2-1 11h-1z" fill="#FDFDFD"/>
<path transform="translate(1120,1632)" d="m0 0 4 1v32l-4 2-3-13h-1v-5-3-2l2-1-1-2h2v-8z" fill="#FDFDFD"/>
<path transform="translate(879,1637)" d="m0 0 5 1 4 10-5 10h-2v5h-1l-1-8z" fill="#FDFDFD"/>
<path transform="translate(880,1613)" d="m0 0h28l1 1v18h-1l-1-14h-7l-1-1h-20z" fill="#FDFDFD"/>
<path transform="translate(1147,1696)" d="m0 0 2 4 2 7 1 5-3 9-4 7-2-1 2-9 1-16z" fill="#FDFDFD"/>
<path transform="translate(1120,1691)" d="m0 0 2 1v33l-4-4v-13l-2-7 2-2z" fill="#FDFDFD"/>
<path transform="translate(964,1613)" d="m0 0h27l1 5h-2v-2l-14 1h-12v6h-1v-9z" fill="#FDFDFD"/>
<path transform="translate(1011,1650)" d="m0 0h2v2h2l1 2h2v12l-2 3h-2v-2h-3z" fill="#F3F3F3"/>
<path transform="translate(1143,1641)" d="m0 0h1l3 11h2l1 6-5 6-2 3z" fill="#FDFDFD"/>
<path transform="translate(991,1676)" d="m0 0h1v52l2 1-4 1-2-6 1-4h2z" fill="#FDFDFD"/>
<path transform="translate(1011,1617)" d="m0 0h1v11h3l1 3-2 5-1 13-2 1z" fill="#FDFDFD"/>
<path transform="translate(855,1641)" d="m0 0h1v25l-3-2-1-5 1-9v-7z" fill="#F8F8F8"/>
</svg>
