<?xml version="1.0" encoding="UTF-8"?>
<!DOCTYPE svg PUBLIC "-//W3C//DTD SVG 1.1//EN" "http://www.w3.org/Graphics/SVG/1.1/DTD/svg11.dtd">
<svg xmlns="http://www.w3.org/2000/svg" version="1.1" width="6912px" height="3456px" style="shape-rendering:geometricPrecision; text-rendering:geometricPrecision; image-rendering:optimizeQuality; fill-rule:evenodd; clip-rule:evenodd" xmlns:xlink="http://www.w3.org/1999/xlink">
<g><path style="opacity:0.234" fill="#fefefe" d="M -0.5,-0.5 C 2303.5,-0.5 4607.5,-0.5 6911.5,-0.5C 6911.5,1151.5 6911.5,2303.5 6911.5,3455.5C 4607.5,3455.5 2303.5,3455.5 -0.5,3455.5C -0.5,2303.5 -0.5,1151.5 -0.5,-0.5 Z"/></g>
<g><path style="opacity:1" fill="#000000" d="M 3354.5,200.5 C 3590.94,194.136 3795.27,270.97 3967.5,431C 4030.6,492.61 4083.27,561.943 4125.5,639C 4195.47,637.418 4254.64,661.585 4303,711.5C 4339.64,752.375 4359.3,800.375 4362,855.5C 4362.96,939.514 4362.62,1023.51 4361,1107.5C 4349.03,1187.77 4307.2,1246.6 4235.5,1284C 4217.11,1292.51 4198.11,1299.01 4178.5,1303.5C 4115,1481.74 4004.67,1623.24 3847.5,1728C 3763.98,1781.92 3673.64,1820.25 3576.5,1843C 3551.33,1914.84 3501.66,1959.18 3427.5,1976C 3345.71,1987.98 3280.54,1960.81 3232,1894.5C 3194.46,1833.58 3189.79,1770.25 3218,1704.5C 3252,1638.55 3306.16,1602.05 3380.5,1595C 3458.07,1593.7 3517.57,1625.53 3559,1690.5C 3724.02,1646.39 3855.35,1554.72 3953,1415.5C 4049.14,1271 4086.47,1112.34 4065,939.5C 4033.89,741.004 3936.73,584.171 3773.5,469C 3614.33,364.796 3441,330.463 3253.5,366C 3076.12,405.876 2935.29,499.709 2831,647.5C 2723.19,809.546 2688.86,986.212 2728,1177.5C 2737.97,1221.76 2752.14,1264.59 2770.5,1306C 2723.17,1306.67 2675.83,1306.67 2628.5,1306C 2542.58,1296.03 2480.42,1252.53 2442,1175.5C 2430.46,1149.69 2423.8,1122.69 2422,1094.5C 2421.33,1010.5 2421.33,926.5 2422,842.5C 2433.35,757.851 2477.18,696.684 2553.5,659C 2586.84,643.902 2621.84,637.235 2658.5,639C 2751.03,469.906 2885.36,346.24 3061.5,268C 3155.2,227.725 3252.86,205.225 3354.5,200.5 Z"/></g>
<g><path style="opacity:1" fill="#00bf63" d="M 3398.5,1491.5 C 3245.33,1491.83 3092.33,1491.5 2939.5,1490.5C 2990.72,1455.63 3039.06,1416.96 3084.5,1374.5C 2982.86,1280.5 2931.86,1163.84 2931.5,1024.5C 2937.45,870.084 3002.11,747.251 3125.5,656C 3235.08,580.616 3355.41,555.616 3486.5,581C 3621.7,612.595 3724.2,688.095 3794,807.5C 3849.51,910.398 3865.18,1019.06 3841,1133.5C 3807.88,1267.23 3731.71,1368.07 3612.5,1436C 3545.63,1471.72 3474.3,1490.22 3398.5,1491.5 Z"/></g>
<g><path style="opacity:1" fill="#7fdfb1" d="M 2939.5,1490.5 C 3092.33,1491.5 3245.33,1491.83 3398.5,1491.5C 3245,1492.67 3091.33,1492.83 2937.5,1492C 2938.04,1491.28 2938.71,1490.78 2939.5,1490.5 Z"/></g>
<g><path style="opacity:1" fill="#000000" d="M 3276.5,2220.5 C 3311.83,2220.33 3347.17,2220.5 3382.5,2221C 3422.55,2224.27 3445.38,2245.77 3451,2285.5C 3451.67,2382.17 3451.67,2478.83 3451,2575.5C 3448.54,2618.29 3426.04,2641.79 3383.5,2646C 3347.17,2646.67 3310.83,2646.67 3274.5,2646C 3244.26,2643.99 3224.1,2628.82 3214,2600.5C 3211.69,2591.96 3210.02,2583.29 3209,2574.5C 3208.02,2477.14 3208.35,2379.81 3210,2282.5C 3216.66,2245 3238.83,2224.33 3276.5,2220.5 Z"/></g>
<g><path style="opacity:1" fill="#000000" d="M 3746.5,2292.5 C 3746.5,2306.83 3746.5,2321.17 3746.5,2335.5C 3718.5,2335.5 3690.5,2335.5 3662.5,2335.5C 3662.67,2323.5 3662.5,2311.5 3662,2299.5C 3660.53,2296.73 3658.7,2294.23 3656.5,2292C 3648.41,2290.88 3640.24,2290.38 3632,2290.5C 3624.07,2290.36 3616.23,2290.86 3608.5,2292C 3605.89,2293.94 3604.06,2296.44 3603,2299.5C 3602.33,2326.17 3602.33,2352.83 3603,2379.5C 3604.11,2384.25 3606.95,2387.41 3611.5,2389C 3635.83,2389.33 3660.17,2389.67 3684.5,2390C 3725.37,2395.21 3747.54,2418.38 3751,2459.5C 3751.17,2478.5 3751.33,2497.5 3751.5,2516.5C 3751.61,2538.86 3751.11,2561.19 3750,2583.5C 3745.14,2620.36 3724.31,2641.19 3687.5,2646C 3650.47,2646.95 3613.47,2646.62 3576.5,2645C 3549.45,2640.61 3531.61,2625.44 3523,2599.5C 3520.74,2590.94 3519.24,2582.27 3518.5,2573.5C 3518.5,2555.83 3518.5,2538.17 3518.5,2520.5C 3546.5,2520.5 3574.5,2520.5 3602.5,2520.5C 3602.17,2537.01 3602.5,2553.34 3603.5,2569.5C 3604.59,2573.75 3607.25,2576.59 3611.5,2578C 3627.17,2578.67 3642.83,2578.67 3658.5,2578C 3660.96,2576.54 3663.13,2574.71 3665,2572.5C 3666.64,2541.89 3666.98,2511.23 3666,2480.5C 3664.5,2476.33 3661.67,2473.5 3657.5,2472C 3632.83,2471.67 3608.17,2471.33 3583.5,2471C 3553.12,2468.58 3532.96,2453.08 3523,2424.5C 3520.9,2415.9 3519.23,2407.24 3518,2398.5C 3517.33,2363.17 3517.33,2327.83 3518,2292.5C 3518.93,2267.12 3529.43,2246.96 3549.5,2232C 3558.17,2226.83 3567.5,2223.5 3577.5,2222C 3595.64,2220.89 3613.8,2220.39 3632,2220.5C 3650.53,2220.4 3669.03,2220.9 3687.5,2222C 3719.55,2227.72 3738.72,2246.55 3745,2278.5C 3745.54,2283.17 3746.04,2287.84 3746.5,2292.5 Z"/></g>
<g><path style="opacity:1" fill="#777777" d="M 3095.5,2227.5 C 3038.17,2227.5 2980.83,2227.5 2923.5,2227.5C 2923.5,2365.17 2923.5,2502.83 2923.5,2640.5C 2922.5,2502.67 2922.17,2364.67 2922.5,2226.5C 2980.34,2226.17 3038,2226.5 3095.5,2227.5 Z"/></g>
<g><path style="opacity:1" fill="#000000" d="M 3095.5,2227.5 C 3137.03,2231.86 3159.53,2254.86 3163,2296.5C 3163.67,2332.83 3163.67,2369.17 3163,2405.5C 3160.44,2451.87 3135.94,2476.04 3089.5,2478C 3063.84,2478.5 3038.17,2478.67 3012.5,2478.5C 3012.5,2532.5 3012.5,2586.5 3012.5,2640.5C 2982.83,2640.5 2953.17,2640.5 2923.5,2640.5C 2923.5,2502.83 2923.5,2365.17 2923.5,2227.5C 2980.83,2227.5 3038.17,2227.5 3095.5,2227.5 Z"/></g>
<g><path style="opacity:1" fill="#656565" d="M 4010.5,2227.5 C 3936.17,2227.5 3861.83,2227.5 3787.5,2227.5C 3787.5,2252.5 3787.5,2277.5 3787.5,2302.5C 3809.67,2302.17 3831.67,2302.5 3853.5,2303.5C 3831.17,2303.5 3808.83,2303.5 3786.5,2303.5C 3786.5,2277.83 3786.5,2252.17 3786.5,2226.5C 3861.34,2226.17 3936,2226.5 4010.5,2227.5 Z"/></g>
<g><path style="opacity:1" fill="#010101" d="M 4010.5,2227.5 C 4010.5,2252.5 4010.5,2277.5 4010.5,2302.5C 3988.17,2302.5 3965.83,2302.5 3943.5,2302.5C 3943.5,2415.17 3943.5,2527.83 3943.5,2640.5C 3913.5,2640.5 3883.5,2640.5 3853.5,2640.5C 3853.5,2528.17 3853.5,2415.83 3853.5,2303.5C 3831.67,2302.5 3809.67,2302.17 3787.5,2302.5C 3787.5,2277.5 3787.5,2252.5 3787.5,2227.5C 3861.83,2227.5 3936.17,2227.5 4010.5,2227.5 Z"/></g>
<g><path style="opacity:1" fill="#fdfdfd" d="M 3305.5,2281.5 C 3321.84,2281.33 3338.17,2281.5 3354.5,2282C 3357.67,2283.83 3360.17,2286.33 3362,2289.5C 3362.67,2384.83 3362.67,2480.17 3362,2575.5C 3360.9,2580.26 3358.07,2583.43 3353.5,2585C 3337.83,2585.67 3322.17,2585.67 3306.5,2585C 3301.95,2583.41 3299.11,2580.25 3298,2575.5C 3297.33,2480.83 3297.33,2386.17 3298,2291.5C 3299.31,2287.2 3301.81,2283.87 3305.5,2281.5 Z"/></g>
<g><path style="opacity:1" fill="#fefefe" d="M 3012.5,2288.5 C 3030.17,2288.33 3047.84,2288.5 3065.5,2289C 3069.67,2290.5 3072.5,2293.33 3074,2297.5C 3074.67,2333.83 3074.67,2370.17 3074,2406.5C 3072.9,2411.26 3070.07,2414.43 3065.5,2416C 3047.84,2416.5 3030.17,2416.67 3012.5,2416.5C 3012.5,2373.83 3012.5,2331.17 3012.5,2288.5 Z"/></g>
<g><path style="opacity:1" fill="#a5a5a5" d="M 3746.5,2292.5 C 3747.5,2306.99 3747.83,2321.66 3747.5,2336.5C 3719,2336.83 3690.66,2336.5 3662.5,2335.5C 3690.5,2335.5 3718.5,2335.5 3746.5,2335.5C 3746.5,2321.17 3746.5,2306.83 3746.5,2292.5 Z"/></g>
<g><path style="opacity:1" fill="#595959" d="M 3603.5,2569.5 C 3602.5,2553.34 3602.17,2537.01 3602.5,2520.5C 3574.5,2520.5 3546.5,2520.5 3518.5,2520.5C 3518.5,2538.17 3518.5,2555.83 3518.5,2573.5C 3517.5,2555.67 3517.17,2537.67 3517.5,2519.5C 3546.17,2519.5 3574.83,2519.5 3603.5,2519.5C 3603.5,2536.17 3603.5,2552.83 3603.5,2569.5 Z"/></g>
<g><path style="opacity:1" fill="#ee5c5b" d="M 3207.5,2881.5 C 3206.5,2849.34 3206.17,2817 3206.5,2784.5C 3190.17,2784.5 3173.83,2784.5 3157.5,2784.5C 3157.5,2861.83 3157.5,2939.17 3157.5,3016.5C 3156.5,2939 3156.17,2861.34 3156.5,2783.5C 3173.5,2783.5 3190.5,2783.5 3207.5,2783.5C 3207.5,2816.17 3207.5,2848.83 3207.5,2881.5 Z"/></g>
<g><path style="opacity:1" fill="#e50201" d="M 3157.5,3016.5 C 3157.5,2939.17 3157.5,2861.83 3157.5,2784.5C 3173.83,2784.5 3190.17,2784.5 3206.5,2784.5C 3206.17,2817 3206.5,2849.34 3207.5,2881.5C 3220.83,2881.5 3234.17,2881.5 3247.5,2881.5C 3247.5,2848.83 3247.5,2816.17 3247.5,2783.5C 3264.17,2783.5 3280.83,2783.5 3297.5,2783.5C 3297.5,2861.17 3297.5,2938.83 3297.5,3016.5C 3280.83,3016.5 3264.17,3016.5 3247.5,3016.5C 3247.5,2986.17 3247.5,2955.83 3247.5,2925.5C 3234.17,2925.5 3220.83,2925.5 3207.5,2925.5C 3207.5,2955.83 3207.5,2986.17 3207.5,3016.5C 3190.83,3016.5 3174.17,3016.5 3157.5,3016.5 Z"/></g>
<g><path style="opacity:1" fill="#e50201" d="M 3391.5,2784.5 C 3408.17,2784.5 3424.83,2784.5 3441.5,2784.5C 3441.17,2849 3441.5,2913.34 3442.5,2977.5C 3442.8,2980.64 3444.47,2982.81 3447.5,2984C 3454.83,2984.67 3462.17,2984.67 3469.5,2984C 3472,2982.83 3473.83,2981 3475,2978.5C 3475.5,2913.5 3475.67,2848.5 3475.5,2783.5C 3492.17,2783.5 3508.83,2783.5 3525.5,2783.5C 3525.67,2850.17 3525.5,2916.83 3525,2983.5C 3521.6,3006.9 3508.1,3019.07 3484.5,3020C 3465.83,3020.67 3447.17,3020.67 3428.5,3020C 3404.7,3016.53 3392.54,3002.7 3392,2978.5C 3391.5,2913.83 3391.33,2849.17 3391.5,2784.5 Z"/></g>
<g><path style="opacity:1" fill="#f17878" d="M 3391.5,2784.5 C 3408.33,2783.5 3425.33,2783.17 3442.5,2783.5C 3442.5,2848.17 3442.5,2912.83 3442.5,2977.5C 3441.5,2913.34 3441.17,2849 3441.5,2784.5C 3424.83,2784.5 3408.17,2784.5 3391.5,2784.5 Z"/></g>
<g><path style="opacity:1" fill="#ec433c" d="M 3714.5,2784.5 C 3682.83,2784.5 3651.17,2784.5 3619.5,2784.5C 3619.5,2861.83 3619.5,2939.17 3619.5,3016.5C 3618.5,2939 3618.17,2861.34 3618.5,2783.5C 3650.67,2783.17 3682.67,2783.5 3714.5,2784.5 Z"/></g>
<g><path style="opacity:1" fill="#e50100" d="M 3714.5,2784.5 C 3733.6,2785.43 3745.77,2795.1 3751,2813.5C 3752.57,2829.79 3752.91,2846.13 3752,2862.5C 3750.47,2875.09 3743.97,2883.92 3732.5,2889C 3743.47,2893.3 3750.63,2901.14 3754,2912.5C 3755.6,2934.13 3755.93,2955.8 3755,2977.5C 3753.67,2999.04 3742.5,3011.88 3721.5,3016C 3687.5,3016.5 3653.5,3016.67 3619.5,3016.5C 3619.5,2939.17 3619.5,2861.83 3619.5,2784.5C 3651.17,2784.5 3682.83,2784.5 3714.5,2784.5 Z"/></g>
<g><path style="opacity:1" fill="#f49292" d="M 3669.5,2818.5 C 3669.5,2838.83 3669.5,2859.17 3669.5,2879.5C 3679.17,2879.5 3688.83,2879.5 3698.5,2879.5C 3688.68,2880.49 3678.68,2880.83 3668.5,2880.5C 3668.17,2859.66 3668.5,2838.99 3669.5,2818.5 Z"/></g>
<g><path style="opacity:1" fill="#fefefe" d="M 3669.5,2818.5 C 3679.17,2818.33 3688.84,2818.5 3698.5,2819C 3700,2819.83 3701.17,2821 3702,2822.5C 3702.67,2840.17 3702.67,2857.83 3702,2875.5C 3701.34,2877.32 3700.17,2878.66 3698.5,2879.5C 3688.83,2879.5 3679.17,2879.5 3669.5,2879.5C 3669.5,2859.17 3669.5,2838.83 3669.5,2818.5 Z"/></g>
<g><path style="opacity:1" fill="#fffafa" d="M 3668.5,2915.5 C 3679.51,2915.33 3690.51,2915.5 3701.5,2916C 3703.05,2917.21 3704.22,2918.71 3705,2920.5C 3705.67,2939.17 3705.67,2957.83 3705,2976.5C 3704.42,2978 3703.58,2979.33 3702.5,2980.5C 3691.22,2981.48 3679.88,2981.81 3668.5,2981.5C 3668.5,2959.5 3668.5,2937.5 3668.5,2915.5 Z"/></g>
</svg>
